<svg xmlns="http://www.w3.org/2000/svg" viewBox="0 0 1035.57 390.46"><defs><style>.cls-1{fill:#303f9f;}.cls-2{fill:#fff;}.cls-3{fill:#fea900;}</style></defs><g id="レイヤー_2" data-name="レイヤー 2"><g id="Layer"><ellipse class="cls-1" cx="517.78" cy="195.23" rx="517.78" ry="195.23"/><path class="cls-2" d="M712.3,225.65,651.59,319s-6.69-.39-22.14-.39c-15.06,0-22.65.39-22.65.39l15.6-93.5a83.94,83.94,0,0,1,3.2-13.69c-.58,1-3.16,6.06-7.78,13.89l-56,93.3s-7.48-.39-22.54-.39c-15.25,0-23.43.39-23.43.39l13-93.3c3.74-27.58,4.41-39.32-.27-46.36,0,0,8.06.39,25.47.39,18.78,0,27.93-.39,27.93-.39a23.2,23.2,0,0,0-11.08,12.32c-2.67,6.85-4.48,18-7.28,32.67l-11.9,66.5c-.93,4.89-2.21,10.18-2.55,11.55A113.71,113.71,0,0,1,555.72,291l66.91-111.69s6.7.39,18.82.39c12.33,0,19.52-.39,19.52-.39L642.28,289.22c-.89,5.28-2.65,13.3-2.65,13.3s4.15-7.63,7.54-13.3l39.26-64.94c8.86-14.67,15.56-25.82,18.24-32.67,2.82-7.24.41-10.56-1.45-12.32,0,0,7.87.39,23.12.39,15.07,0,22.26-.39,22.26-.39C738.61,186.33,730.12,198.07,712.3,225.65Z"/><path class="cls-2" d="M734.64,268.09c-7.33,18.78-3,32.28,18.1,32.28,25.62,0,36.87-10.76,37.84-11.74-5.73,14.67-23.44,32.47-57.48,32.47-21.32,0-50-8.8-30.86-57.7,15.06-38.54,42.33-59.27,75.58-59.27,48.31,0,34.25,39.51,25.46,62l-.77,1.95Zm36.68-47.33c-12.71,0-21.28,8.41-31.18,33.25l36.47-3.72C783.26,233.28,787.17,220.76,771.32,220.76Z"/><path class="cls-2" d="M850.54,320.91c-20.93,0-25.57-10.17-25.57-10.17L789.16,321.3s6.42-11.93,22.85-54L831.27,218c13.22-33.84,13.6-39.32,12.69-45l-.47-3.33,43-4.89s-8.38,19.95-15.64,38.54l-2.45,6.26a172.25,172.25,0,0,1-9,19.56c10.61-15.65,23.48-25,43.23-25,11.93,0,41,3.13,20.32,56.14C904.67,307,876,320.91,850.54,320.91Zm28.37-95.65c-6.65,0-12.86,1.36-19.08,6.25l-25.75,65.92s2.35,4.5,12.91,4.5c18,0,29.92-14.47,39.7-39.51C894.17,243.25,896.9,225.26,878.91,225.26Z"/><path class="cls-2" d="M161.27,157.74c-12.21,0-18.17-2.84-18.17-2.84s.19-2.17.19-7.38c0-5.68-.19-9.18-.19-9.18,3.31,4.83,7.85,9.47,17,9.47,6.34,0,11.45-1.42,11.45-7.48,0-4.73-3-6.44-7.57-8.9l-7.77-4.35C148.87,123,143,117.9,143,108.15,143,95.37,151.43,89,167.23,89c11.27,0,17.14,2.74,17.14,2.74s-.19,2.27-.19,7.67c0,5.58.19,8.71.19,8.71-3.79-5.49-8.52-9.28-16-9.28-6.15,0-10.13,1.7-10.13,6.63,0,4.45,3.22,6,8.33,8.8l6.72,3.69c8.24,4.45,13.63,9.37,13.63,19.78C186.92,153.39,175.66,157.74,161.27,157.74Z"/><path class="cls-2" d="M244.27,157c-6.91,0-12.59.19-12.59.19a6.68,6.68,0,0,0,3-6c0-2.93-1.23-7.57-2.65-13.15l-1-4H211.71l-1,4c-1.42,5.58-2.74,10.22-2.74,13.15a6.71,6.71,0,0,0,3,6s-4.36-.19-10.7-.19c-6.53,0-10.22.19-10.22.19,3.5-3.41,5.2-9.28,9-22.44L210.2,95.27a14.39,14.39,0,0,0,.57-3.5,2.68,2.68,0,0,0-.67-2H238a3.57,3.57,0,0,0-.57,2,14.35,14.35,0,0,0,.47,3.5l10.32,39.47c3.5,13.26,5.11,19,8.61,22.44C256.86,157.18,251.85,157,244.27,157Zm-21.39-55.56c-1-4.07-1.42-6.25-1.51-6.91-.1.47-.38,2.46-1.52,6.91l-5.77,23.09h14.58Z"/><path class="cls-2" d="M288.37,132.57a45,45,0,0,1-7-.57c0,18,.47,19.88,2.55,23.47l1.05,1.71s-3.41-.19-11.65-.19-11.54.19-11.54.19l.85-1.61c1.89-3.5,2.36-4.26,2.36-32.66,0-27.54-.38-27.92-2.36-31.71l-.85-1.61s3.4.19,9,.19c4.16,0,11.92-.28,15.05-.28,10.88,0,29.53.66,29.53,20.63C315.35,129.35,300.2,132.57,288.37,132.57Zm-3-34.36a39.67,39.67,0,0,0-4,.19v25.18a28.83,28.83,0,0,0,4.45.18c11.83,0,12.3-8.33,12.3-13.34C298.12,99.44,290.83,98.21,285.34,98.21Z"/><path class="cls-2" d="M349.89,132.57a45,45,0,0,1-7-.57c0,18,.48,19.88,2.56,23.47l1,1.71s-3.41-.19-11.64-.19-11.55.19-11.55.19l.85-1.61c1.9-3.5,2.37-4.26,2.37-32.66,0-27.54-.38-27.92-2.37-31.71l-.85-1.61s3.41.19,9,.19c4.17,0,11.93-.28,15.05-.28,10.89,0,29.53.66,29.53,20.63C376.86,129.35,361.72,132.57,349.89,132.57Zm-3-34.36c-2.27,0-4,.19-4,.19v25.18a28.83,28.83,0,0,0,4.45.18c11.83,0,12.31-8.33,12.31-13.34C359.64,99.44,352.35,98.21,346.86,98.21Z"/><path class="cls-2" d="M416.7,158.31c-21.11,0-31.8-12.3-31.8-33.79,0-18.27,8.52-35.68,31.61-35.68,21.11,0,31.8,12.3,31.8,33.79C448.31,140.9,439.8,158.31,416.7,158.31Zm0-59.72c-9.56,0-13.91,7.76-13.91,25.17s4.26,24.8,13.72,24.8,13.92-7.76,13.92-25.17S426.17,98.59,416.7,98.59Z"/><path class="cls-2" d="M507.27,157.74c-7.85,0-11.26-2.17-15.8-10.41l-5.11-9c-4.36-7.67-5.21-9.65-8.9-9.65a10.06,10.06,0,0,0-1.42.09c0,22.81.47,23.29,2.36,26.79l.86,1.61s-3.41-.19-11.08-.19-11.17.19-11.17.19l.86-1.61c1.89-3.41,2.36-4.26,2.36-32.66,0-27.54-.38-27.92-2.36-31.71L457,89.59s3.79.19,8.81.19c3.12,0,10.6-.19,13.72-.19,14.86,0,29.44.67,29.44,17.42,0,13.82-10.41,18.27-19.22,18.55,7.1,1,10,4.07,14,11.74L509,147.43c2.55,4.73,4.16,7.1,7.57,8.61C516.55,156,514.94,157.74,507.27,157.74ZM479.73,98.11a27.07,27.07,0,0,0-3.69.19v21.77a28.79,28.79,0,0,0,4.07.19,18.77,18.77,0,0,0,5.2-.66c4-.95,6.82-4.07,6.82-10.51C492.13,99.91,487.3,98.11,479.73,98.11Z"/><path class="cls-2" d="M550.14,158.31c-21.11,0-31.8-12.3-31.8-33.79,0-18.27,8.52-35.68,31.61-35.68,21.11,0,31.8,12.3,31.8,33.79C581.75,140.9,573.24,158.31,550.14,158.31Zm0-59.72c-9.56,0-13.91,7.76-13.91,25.17s4.26,24.8,13.72,24.8,13.92-7.76,13.92-25.17S559.61,98.59,550.14,98.59Z"/><path class="cls-3" d="M608.49,157.73c.17-.53.32-1,.49-1.54q2.19-6.74,4.39-13.48c1.09-3.37,2.17-6.74,3.28-10.1a.41.41,0,0,0-.19-.53L605,123.76q-4.83-3.51-9.67-7a.66.66,0,0,1-.22-.22.78.78,0,0,1,.37,0h25.9c.49,0,.49,0,.64-.47l4.38-13.45Q628.21,97,630,91.46a.9.9,0,0,1,.17-.39c.13.09.14.25.18.38q2.5,7.72,5,15.45,1.47,4.56,3,9.11c.15.48.15.48.67.48h25.87a.77.77,0,0,1,.41,0l-.85.64-14.2,10.31-6.37,4.62a.34.34,0,0,0-.14.46c1,2.94,1.91,5.87,2.86,8.81l5.22,16.07c0,.09.09.18,0,.28s-.16-.06-.23-.11l-11-7.95-10.21-7.43a.4.4,0,0,0-.55,0l-9.15,6.66-12,8.7A.34.34,0,0,1,608.49,157.73Z"/></g></g></svg>
